<?xml version="1.0" encoding="UTF-8"?>
<svg width="32" height="32" viewBox="0 0 32 32" xmlns="http://www.w3.org/2000/svg">
    <!-- White background circle -->
    <circle cx="16" cy="16" r="15" fill="white"/>
    <!-- Orange S letter - bolder, bigger, and centered -->
    <path d="M22 12c0-3.3-2.7-5.3-6-5.3s-6 2-6 5.3c0 2.7 1.6 4 4.7 4.8l2 0.5c2 0.5 2.7 1.3 2.7 2.7 0 1.6-1.4 2.7-3.4 2.7-2 0-3.4-1.1-3.4-3.3H9c0.1 4 2.7 6 7.3 6 4.4 0 7.3-2.3 7.3-6 0-2.9-1.7-4.4-5-5.3l-2-0.5c-1.8-0.4-2.3-1.1-2.3-2.1 0-1.3 1.1-2.3 2.7-2.3 1.6 0 2.7 1 2.7 2.7h4z" fill="#E55947"/>
</svg> 
